# xmcd
#
# Track frame offsets: 
#        150
#        12395
#        24300
#        37697
#        53827
#        64767
#        80147
#        98815
#        115037
#        125905
#        141852
#        152895
#        170322
#        180690
#        196622
#        220635
#        242640
#        257145
#        263350
#
# Disc length: 3811 seconds
#
# Revision: 2
# Processed by: cddbd v1.4PL0 Copyright (c) Steve Scherf et al.
# Submitted via: ExactAudioCopy v0.90b3
#
DISCID=f80ee113
DTITLE=Barbra Streisand - Just For The Record - Disc 3 of 4 (The '70s)
DYEAR=1991
DGENRE=Vocal
TTITLE0=The Singer
TTITLE1=I Can Do It
TTITLE2=Stoney End
TTITLE3=Barbra Streisand and Burt Bacharach - (They Long To Be) Close To
TTITLE3=You (from the Burt Bacharach Special)
TTITLE4=We've Only Just Begun
TTITLE5=Since I Fell For You (from ''Barbra Joan Streisand'')
TTITLE6=Barbra Streisand and Ryan O'Neal - You're The Top (from ''What's
TTITLE6=Up Doc?'')
TTITLE7=Barbra Streisand and Michael Legrand - What Are You Doing The Re
TTITLE7=st Of Your Life (Demo - Album Version)
TTITLE8=If I Close My Eyes (from ''Up The Sandbox'')
TTITLE9=Between Yesterday And Tomorrow
TTITLE10=Can You Tell The Moment?
TTITLE11=The Way We Were (Soundtrack Version)
TTITLE12=Barbra Streisand and Ray Charles - Cryin' Time (from ''Barbra S
TTITLE12=treisand and Other Musical Instruments'')
TTITLE13=God Bless The Child
TTITLE14=A Quiet Thing - There Won't Be Trumpets
TTITLE15=Lost Inside Of You (Film Dialogue - Alternate Soundtrack Vers
TTITLE15=ion - from ''A Star Is Born'')
TTITLE16=Evergreen (Demo - Soundtrack Version - from ''A Star Is Born'
TTITLE16=')
TTITLE17=1977 Academy Awards
TTITLE18=Barbra Streisand and Golda Meir - Hatikvah (from ''The Stars Sa
TTITLE18=lute Israel At 30'')
EXTD=
EXTT0=
EXTT1=
EXTT2=
EXTT3=
EXTT4=
EXTT5=
EXTT6=
EXTT7=
EXTT8=
EXTT9=
EXTT10=
EXTT11=
EXTT12=
EXTT13=
EXTT14=
EXTT15=
EXTT16=
EXTT17=
EXTT18=
PLAYORDER=
